<?xml version="1.0" encoding="UTF-8"?>
<!DOCTYPE svg PUBLIC "-//W3C//DTD SVG 1.1//EN" "http://www.w3.org/Graphics/SVG/1.1/DTD/svg11.dtd">
<svg xmlns="http://www.w3.org/2000/svg" version="1.1" width="512px" height="512px" style="shape-rendering:geometricPrecision; text-rendering:geometricPrecision; image-rendering:optimizeQuality; fill-rule:evenodd; clip-rule:evenodd" xmlns:xlink="http://www.w3.org/1999/xlink">
<g><path style="opacity:0.955" fill="#000000" d="M 161.5,40.5 C 165.514,40.3345 169.514,40.5012 173.5,41C 175.211,42.1332 175.711,43.6332 175,45.5C 124.667,93.8333 74.3333,142.167 24,190.5C 20.3605,187.207 17.1939,183.54 14.5,179.5C 20.618,139.509 26.7846,99.5089 33,59.5C 37.3333,63.8333 41.6667,68.1667 46,72.5C 45.3756,76.7919 44.5423,81.1252 43.5,85.5C 45.2321,101.399 54.0655,110.065 70,111.5C 90.8626,107.314 98.5292,94.9805 93,74.5C 85.0163,60.9501 73.683,56.9501 59,62.5C 54.6513,58.3184 50.4846,53.9851 46.5,49.5C 84.9295,46.0951 123.263,43.0951 161.5,40.5 Z"/></g>
<g><path style="opacity:0.969" fill="#000000" d="M 186.5,56.5 C 193.41,61.9043 199.91,67.9043 206,74.5C 268.833,140 331.667,205.5 394.5,271C 380.262,292.91 378.762,315.743 390,339.5C 393.885,346.223 398.718,352.223 404.5,357.5C 387.012,374.821 369.345,391.987 351.5,409C 312.5,409.667 273.5,409.667 234.5,409C 168.667,340.5 102.833,272 37,203.5C 36.3698,201.097 37.2031,199.263 39.5,198C 88.6989,150.966 137.699,103.8 186.5,56.5 Z M 160.5,109.5 C 163.179,109.673 165.513,110.673 167.5,112.5C 172.152,117.652 176.985,122.652 182,127.5C 191.052,145.007 186.885,158.174 169.5,167C 166.883,167.822 164.216,168.322 161.5,168.5C 157.104,189.038 144.77,196.205 124.5,190C 117.75,184.254 111.25,178.088 105,171.5C 103,168.167 103,164.833 105,161.5C 123.118,143.542 141.618,126.208 160.5,109.5 Z M 202.5,153.5 C 205.016,153.755 207.35,154.589 209.5,156C 215.033,161.198 220.2,166.698 225,172.5C 232.477,186.093 230.31,197.926 218.5,208C 210.986,212.409 202.986,213.576 194.5,211.5C 191.858,221.788 188.358,231.788 184,241.5C 176.884,245.447 172.051,243.613 169.5,236C 173.828,224.213 177.662,212.379 181,200.5C 180.163,198.993 178.996,198.493 177.5,199C 171.136,205.699 164.469,212.032 157.5,218C 146.528,218.876 143.361,214.376 148,204.5C 165.761,186.9 183.928,169.9 202.5,153.5 Z M 263.5,216.5 C 270.994,217.145 273.827,221.145 272,228.5C 261.273,251.622 250.273,274.622 239,297.5C 234.667,301.5 230.333,301.5 226,297.5C 225.077,295.966 224.577,294.299 224.5,292.5C 226.672,287.184 228.505,281.85 230,276.5C 224.532,270.031 218.699,263.864 212.5,258C 207.983,258.408 203.649,259.741 199.5,262C 191.333,263.167 187.833,259.667 189,251.5C 190.251,248.619 192.417,246.786 195.5,246C 218.373,236.391 241.04,226.557 263.5,216.5 Z M 298.5,254.5 C 304.419,254.087 308.085,256.754 309.5,262.5C 305.245,279.688 300.911,296.855 296.5,314C 296.833,314.5 297.167,315 297.5,315.5C 307.349,305.817 317.349,296.317 327.5,287C 332.139,285.099 335.972,286.266 339,290.5C 339.667,292.833 339.667,295.167 339,297.5C 321.859,314.974 304.359,332.141 286.5,349C 279.423,352.385 274.757,350.385 272.5,343C 277.394,325.261 281.561,307.428 285,289.5C 274.863,298.636 265.03,308.136 255.5,318C 248.812,320.656 244.479,318.489 242.5,311.5C 242.899,309.803 243.399,308.137 244,306.5C 262.062,288.935 280.229,271.602 298.5,254.5 Z M 348.5,304.5 C 364.421,312.459 372.754,325.459 373.5,343.5C 371.882,365.951 360.215,380.117 338.5,386C 323.511,388.224 310.511,384.224 299.5,374C 297.372,370.87 294.872,368.037 292,365.5C 291.333,363.167 291.333,360.833 292,358.5C 306.446,344.054 320.946,329.554 335.5,315C 339.754,311.229 344.088,307.729 348.5,304.5 Z"/></g>
<g><path style="opacity:0.874" fill="#000000" d="M 65.5,76.5 C 75.6591,75.1581 79.8257,79.4914 78,89.5C 75.1034,94.1549 70.9367,95.6549 65.5,94C 60.8468,91.0579 59.3468,86.8912 61,81.5C 62.025,79.313 63.525,77.6464 65.5,76.5 Z"/></g>
<g><path style="opacity:0.877" fill="#000000" d="M 160.5,129.5 C 164.165,132.333 167.332,135.666 170,139.5C 171.102,149.716 166.602,153.549 156.5,151C 153.65,148.318 150.984,145.484 148.5,142.5C 152.522,138.146 156.522,133.813 160.5,129.5 Z"/></g>
<g><path style="opacity:0.849" fill="#000000" d="M 134.5,154.5 C 143.921,158.002 146.755,164.335 143,173.5C 138.669,177.228 134.169,177.395 129.5,174C 127.112,171.95 125.112,169.616 123.5,167C 126.99,162.677 130.657,158.51 134.5,154.5 Z"/></g>
<g><path style="opacity:0.876" fill="#000000" d="M 202.5,174.5 C 211.01,177.838 213.843,183.838 211,192.5C 206.874,196.66 202.374,197.16 197.5,194C 194.983,191.651 192.65,189.151 190.5,186.5C 194.827,182.839 198.827,178.839 202.5,174.5 Z"/></g>
<g><path style="opacity:0.782" fill="#000000" d="M 245.5,241.5 C 246.376,241.369 247.043,241.702 247.5,242.5C 244.56,248.717 241.393,254.717 238,260.5C 233.846,257.679 230.346,254.179 227.5,250C 233.731,247.435 239.731,244.602 245.5,241.5 Z"/></g>
<g><path style="opacity:0.909" fill="#000000" d="M 446.5,259.5 C 476.543,262.21 492.876,278.543 495.5,308.5C 493.014,337.986 477.014,354.32 447.5,357.5C 417.497,354.831 401.164,338.497 398.5,308.5C 401.13,278.871 417.13,262.538 446.5,259.5 Z M 438.5,274.5 C 444.167,274.5 449.833,274.5 455.5,274.5C 455.174,278.884 455.508,283.217 456.5,287.5C 459.818,284.683 462.985,281.683 466,278.5C 469.833,282.333 473.667,286.167 477.5,290C 474.167,293.333 470.833,296.667 467.5,300C 472.155,300.499 476.821,300.666 481.5,300.5C 481.5,305.833 481.5,311.167 481.5,316.5C 476.821,316.334 472.155,316.501 467.5,317C 470.833,320.333 474.167,323.667 477.5,327C 473.667,330.833 469.833,334.667 466,338.5C 462.985,335.317 459.818,332.317 456.5,329.5C 455.508,333.783 455.174,338.116 455.5,342.5C 449.833,342.5 444.167,342.5 438.5,342.5C 438.666,338.154 438.499,333.821 438,329.5C 435,332.5 432,335.5 429,338.5C 425.167,334.667 421.333,330.833 417.5,327C 420.683,323.985 423.683,320.818 426.5,317.5C 421.88,316.507 417.214,316.173 412.5,316.5C 412.5,311.167 412.5,305.833 412.5,300.5C 417.214,300.827 421.88,300.493 426.5,299.5C 423.683,296.182 420.683,293.015 417.5,290C 421.333,286.167 425.167,282.333 429,278.5C 432,281.5 435,284.5 438,287.5C 438.499,283.179 438.666,278.846 438.5,274.5 Z"/></g>
<g><path style="opacity:0.924" fill="#000000" d="M 347.5,325.5 C 350.642,325.799 352.809,327.466 354,330.5C 360.787,347.815 355.954,360.648 339.5,369C 329.639,371.951 320.639,370.284 312.5,364C 311.483,362.951 311.316,361.784 312,360.5C 324.339,349.328 336.172,337.661 347.5,325.5 Z"/></g>
<g><path style="opacity:0.915" fill="#000000" d="M 252.5,425.5 C 279.508,425.167 306.508,425.5 333.5,426.5C 319.8,440.367 305.634,453.701 291,466.5C 279.066,454.566 267.066,442.566 255,430.5C 253.906,428.922 253.072,427.255 252.5,425.5 Z"/></g>
</svg>
