<?xml version="1.0" encoding="UTF-8"?>
<!DOCTYPE svg PUBLIC "-//W3C//DTD SVG 1.1//EN" "http://www.w3.org/Graphics/SVG/1.1/DTD/svg11.dtd">
<svg xmlns="http://www.w3.org/2000/svg" version="1.1" width="512px" height="512px" style="shape-rendering:geometricPrecision; text-rendering:geometricPrecision; image-rendering:optimizeQuality; fill-rule:evenodd; clip-rule:evenodd" xmlns:xlink="http://www.w3.org/1999/xlink">
<g><path style="opacity:0.992" fill="#000000" d="M 511.5,105.5 C 511.5,108.833 511.5,112.167 511.5,115.5C 496.83,177.995 482.33,240.661 468,303.5C 461.317,325.183 446.817,338.017 424.5,342C 339.833,342.667 255.167,342.667 170.5,342C 151.084,338.246 137.251,327.413 129,309.5C 109.197,231.288 89.8636,152.954 71,74.5C 66.4034,60.2365 56.9034,51.0698 42.5,47C 29.8333,46.6667 17.1667,46.3333 4.5,46C 2.67694,45.0027 1.01027,43.8361 -0.5,42.5C -0.5,39.5 -0.5,36.5 -0.5,33.5C 0.961599,32.5423 2.29493,31.3756 3.5,30C 17.1667,29.3333 30.8333,29.3333 44.5,30C 62.328,33.6571 75.4947,43.4904 84,59.5C 88.3409,73.211 92.1742,87.0443 95.5,101C 232.5,101.333 369.5,101.667 506.5,102C 508.323,102.997 509.99,104.164 511.5,105.5 Z"/></g>
<g><path style="opacity:0.974" fill="#000000" d="M 207.5,384.5 C 239.365,385.199 257.031,401.366 260.5,433C 257.769,462.231 241.769,478.398 212.5,481.5C 182.731,478.897 166.397,462.73 163.5,433C 165.854,405.486 180.521,389.319 207.5,384.5 Z"/></g>
<g><path style="opacity:0.975" fill="#000000" d="M 362.5,384.5 C 394.402,385.239 412.068,401.406 415.5,433C 412.626,462.707 396.293,478.874 366.5,481.5C 337.231,478.398 321.231,462.231 318.5,433C 320.85,405.49 335.517,389.323 362.5,384.5 Z"/></g>
</svg>
