<?xml version="1.0" encoding="UTF-8"?>
<!DOCTYPE svg PUBLIC "-//W3C//DTD SVG 1.1//EN" "http://www.w3.org/Graphics/SVG/1.1/DTD/svg11.dtd">
<svg xmlns="http://www.w3.org/2000/svg" version="1.1" width="512px" height="512px" style="shape-rendering:geometricPrecision; text-rendering:geometricPrecision; image-rendering:optimizeQuality; fill-rule:evenodd; clip-rule:evenodd" xmlns:xlink="http://www.w3.org/1999/xlink">
<g><path style="opacity:0.992" fill="#000000" d="M 241.5,-0.5 C 250.833,-0.5 260.167,-0.5 269.5,-0.5C 313.628,8.45752 341.461,34.7909 353,78.5C 354.186,85.7859 354.686,93.1193 354.5,100.5C 372.17,100.333 389.836,100.5 407.5,101C 424.547,105.715 434.047,116.882 436,134.5C 443.333,227.167 450.667,319.833 458,412.5C 462.747,449.982 449.581,479.149 418.5,500C 408.667,505.551 398.333,509.384 387.5,511.5C 299.5,511.5 211.5,511.5 123.5,511.5C 94.8599,506.039 73.6933,490.372 60,464.5C 52.9252,447.845 50.5919,430.512 53,412.5C 60.1865,316.407 68.1865,220.407 77,124.5C 81.7686,112.064 90.6019,104.23 103.5,101C 121.164,100.5 138.83,100.333 156.5,100.5C 159.167,45.1707 187.5,11.504 241.5,-0.5 Z M 244.5,30.5 C 278.065,27.5271 302.565,40.8604 318,70.5C 322.212,80.0581 324.045,90.0581 323.5,100.5C 278.167,100.5 232.833,100.5 187.5,100.5C 188.989,62.8325 207.989,39.4992 244.5,30.5 Z M 157.5,100.5 C 167.167,100.5 176.833,100.5 186.5,100.5C 186.667,122.836 186.5,145.169 186,167.5C 183.525,179.63 176.358,183.796 164.5,180C 161.527,178.235 159.36,175.735 158,172.5C 157.5,148.502 157.333,124.502 157.5,100.5 Z M 324.5,100.5 C 334.167,100.5 343.833,100.5 353.5,100.5C 353.667,124.502 353.5,148.502 353,172.5C 347.135,182.246 339.301,184.08 329.5,178C 326.773,175.044 325.273,171.544 325,167.5C 324.5,145.169 324.333,122.836 324.5,100.5 Z M 311.5,249.5 C 324.416,251.665 328.916,258.998 325,271.5C 298.167,299.667 270.667,327.167 242.5,354C 236.587,357.513 230.92,357.179 225.5,353C 212.667,340.167 199.833,327.333 187,314.5C 182.004,304.782 184.17,297.282 193.5,292C 199.018,290.713 204.018,291.713 208.5,295C 217.333,303.833 226.167,312.667 235,321.5C 257.833,298.667 280.667,275.833 303.5,253C 306.158,251.522 308.825,250.355 311.5,249.5 Z"/></g>
</svg>
